<?xml version="1.0" encoding="UTF-8" standalone="no"?>
<!DOCTYPE svg PUBLIC "-//W3C//DTD SVG 1.1//EN" "http://www.w3.org/Graphics/SVG/1.1/DTD/svg11.dtd">
<svg width="100%" height="100%" viewBox="0 0 32 32" version="1.1" xmlns="http://www.w3.org/2000/svg" xmlns:xlink="http://www.w3.org/1999/xlink" xml:space="preserve" xmlns:serif="http://www.serif.com/" style="fill-rule:evenodd;clip-rule:evenodd;stroke-linejoin:round;stroke-miterlimit:2;">
    <g transform="matrix(0.648936,0,0,0.648936,-103.434,-52.1628)">
        <path d="M193.046,120L193.046,129" style="fill:none;stroke:rgb(0,72,173);stroke-width:2.31px;"/>
    </g>
    <g transform="matrix(0.648936,0,0,0.648936,-103.434,-52.1628)">
        <path d="M175.046,120L175.046,129" style="fill:none;stroke:rgb(0,72,173);stroke-width:2.31px;"/>
    </g>
    <g transform="matrix(0.648936,0,0,0.648936,-103.434,-52.1628)">
        <path d="M196.046,105L198.046,105L198.046,110L196.046,112L196.046,113C196.046,114.308 195.733,116.969 195.046,118C194.358,119.031 191.046,122 191.046,122C189.618,123.37 187.796,124 186.046,124L182.046,124C180.296,124 178.474,123.37 177.046,122C177.046,122 173.733,119.031 173.046,118C172.358,116.969 172.046,114.308 172.046,113L172.046,112L170.046,110L170.046,105L172.046,105" style="fill:none;stroke:rgb(0,72,173);stroke-width:2.31px;"/>
    </g>
    <g transform="matrix(0.648936,0,0,0.648936,-103.434,-52.1628)">
        <path d="M181.046,91L181.046,82L187.046,82L187.046,91" style="fill:none;stroke:rgb(0,72,173);stroke-width:2.31px;"/>
    </g>
    <g transform="matrix(0.648936,0,0,0.648936,-103.434,-52.1628)">
        <path d="M201.046,102L167.046,102" style="fill:none;stroke:rgb(0,72,173);stroke-width:2.31px;"/>
    </g>
    <g transform="matrix(0.648936,0,0,0.648936,-103.434,-52.1628)">
        <path d="M178.046,88L178.046,83C173.296,84.584 170.046,87.958 170.046,93L170.046,97L168.046,98L168.046,100" style="fill:none;stroke:rgb(0,72,173);stroke-width:2.31px;"/>
    </g>
    <g transform="matrix(0.648936,0,0,0.648936,-103.434,-52.1628)">
        <path d="M190.046,88L190.046,83C194.796,84.584 198.046,87.958 198.046,93L198.046,97L200.046,98L200.046,100" style="fill:none;stroke:rgb(0,72,173);stroke-width:2.31px;"/>
    </g>
</svg>
